<svg width="490" height="490" viewBox="0 0 490 490" fill="none" xmlns="http://www.w3.org/2000/svg">
<path d="M285.45 387.2H204.95V489.8H285.45V387.2Z" fill="white"/>
<path d="M0.0500488 0V489.8H178.45V372.4C178.45 364.2 184.25 357.6 191.65 357.6H298.15C305.55 357.6 311.35 364.2 311.35 372.4V489.8H489.75V0H0.0500488ZM114.75 312.5H60.75V258.5H114.75V312.5ZM114.75 211.5H60.75V157.5H114.75V211.5ZM114.75 110.4H60.75V56H114.75V110.4ZM219.65 312.5H165.25V258.5H219.25V312.5H219.65ZM219.65 211.5H165.25V157.5H219.25V211.5H219.65ZM219.65 110.4H165.25V56H219.25V110.4H219.65ZM324.65 312.5H270.25V258.5H324.25V312.5H324.65ZM324.65 211.5H270.25V157.5H324.25V211.5H324.65ZM324.65 110.4H270.25V56H324.25V110.4H324.65ZM429.25 312.5H375.25V258.5H429.25V312.5ZM429.25 211.5H375.25V157.5H429.25V211.5ZM429.25 110.4H375.25V56H429.25V110.4Z" fill="white"/>
</svg>
