<svg width="23" height="19" viewBox="0 0 23 19" fill="none" xmlns="http://www.w3.org/2000/svg">
<path d="M22.706 2.185C21.871 2.555 20.974 2.805 20.031 2.918C20.993 2.342 21.731 1.428 22.079 0.34C21.179 0.874 20.182 1.262 19.121 1.47C18.271 0.566 17.061 0 15.721 0C13.149 0 11.063 2.086 11.063 4.66C11.063 5.024 11.105 5.378 11.183 5.72C7.31 5.525 3.879 3.67 1.581 0.852C1.181 1.542 0.951 2.342 0.951 3.194C0.951 4.81 1.774 6.237 3.023 7.072C2.259 7.047 1.541 6.838 0.913 6.489V6.549C0.913 8.806 2.518 10.689 4.65 11.117C4.258 11.223 3.847 11.279 3.423 11.279C3.123 11.279 2.83 11.251 2.546 11.197C3.139 13.047 4.859 14.395 6.898 14.431C5.303 15.681 3.294 16.426 1.112 16.426C0.736 16.426 0.365 16.404 0 16.361C2.062 17.684 4.51 18.454 7.14 18.454C15.71 18.454 20.395 11.356 20.395 5.2C20.395 5 20.39 4.798 20.381 4.598C21.291 3.94 22.081 3.121 22.704 2.188L22.706 2.185Z" fill="#4E6999"/>
</svg>
