<svg width="28" height="28" viewBox="0 0 28 28" fill="none" xmlns="http://www.w3.org/2000/svg">
<path fill-rule="evenodd" clip-rule="evenodd" d="M0.00280762 27.9886V0H27.9857V27.9886H17.7914V21.28C17.7914 20.8114 17.4599 20.4343 17.0371 20.4343H10.9514C10.5285 20.4343 10.1971 20.8114 10.1971 21.28V27.9886H0.00280762ZM3.47138 17.8571H6.55709V14.7714H3.47138V17.8571ZM3.47138 12.0857H6.55709V9H3.47138V12.0857ZM3.47138 6.30857H6.55709V3.2H3.47138V6.30857ZM9.44281 17.8571H12.5285V14.7714H9.44281V17.8571ZM9.44281 12.0857H12.5285V9H9.44281V12.0857ZM9.44281 6.30857H12.5285V3.2H9.44281V6.30857ZM15.4428 17.8571H18.5285V14.7714H15.4428V17.8571ZM15.4428 12.0857H18.5285V9H15.4428V12.0857ZM15.4428 6.30857H18.5285V3.2H15.4428V6.30857ZM21.4428 17.8571H24.5285V14.7714H21.4428V17.8571ZM21.4428 12.0857H24.5285V9H21.4428V12.0857ZM21.4428 6.30857H24.5285V3.2H21.4428V6.30857ZM11.7114 22.1257H16.3114V27.9886H11.7114V22.1257Z" fill="#4E6999"/>
</svg>
