<svg width="28" height="28" viewBox="0 0 28 28" fill="none" xmlns="http://www.w3.org/2000/svg">
<path fill-rule="evenodd" clip-rule="evenodd" d="M15.9707 2.0453C18.6978 -0.681765 23.1655 -0.681765 25.8926 2.0453C28.639 4.7917 28.639 9.24009 25.8925 11.9671L23.707 14.1526L20.0903 17.7693C19.9162 17.9628 19.7035 18.1369 19.51 18.2916C17.4986 19.8776 14.8296 20.2257 12.5279 19.3167C11.6769 18.9879 10.8646 18.4657 10.1683 17.7694L13.1662 14.7716C14.2493 15.8547 16.0093 15.8547 17.0924 14.7716L19.394 12.47L22.8947 8.96932C23.9778 7.88623 23.9778 6.12622 22.8947 5.04313C21.8116 3.96004 20.0516 3.96004 18.9685 5.04313L16.1835 7.82821C14.4428 7.0159 12.4506 6.88051 10.6132 7.40271L15.9707 2.0453ZM8.96926 22.8947L11.6383 20.2256C13.9205 21.1347 14.5394 21.212 17.2086 20.5931L11.9672 25.8926C9.2401 28.6196 4.77236 28.6196 2.0453 25.8926C-0.681765 23.1655 -0.681765 18.6977 2.0453 15.9707L7.84755 10.1685C7.92492 10.0911 8.02162 9.99439 8.11833 9.91703C10.1491 8.09899 12.9922 7.65415 15.4098 8.62119C16.2608 8.94999 17.0731 9.47219 17.7694 10.1685L14.7716 13.1663C13.6884 12.0832 11.9284 12.0832 10.8453 13.1663L5.04307 18.9685C3.95998 20.0516 3.95998 21.8116 5.04307 22.8947C6.12615 23.9778 7.88617 23.9778 8.96926 22.8947Z" fill="#4E6999"/>
</svg>
