<svg width="443" height="443" viewBox="0 0 443 443" fill="none" xmlns="http://www.w3.org/2000/svg">
<path d="M409.657 32.474C366.511 -10.672 295.825 -10.672 252.679 32.474L167.916 117.236C196.986 108.974 228.505 111.116 256.045 123.968L300.108 79.904C317.244 62.768 345.09 62.768 362.226 79.904C379.362 97.04 379.362 124.886 362.226 142.022L306.84 197.408L270.426 233.822C253.29 250.958 225.444 250.958 208.307 233.822L160.877 281.252C171.893 292.269 184.745 300.53 198.209 305.732C234.624 320.114 276.852 314.606 308.676 289.513C311.736 287.066 315.102 284.312 317.856 281.251L375.078 224.029L409.656 189.451C453.109 146.306 453.109 75.926 409.657 32.474Z" fill="white"/>
<path d="M184.135 320.114L141.907 362.342C124.771 379.479 96.925 379.479 79.789 362.342C62.653 345.206 62.653 317.361 79.789 300.224L171.589 208.425C188.725 191.289 216.571 191.289 233.708 208.425L281.138 160.995C270.122 149.979 257.27 141.717 243.806 136.515C205.556 121.215 160.574 128.253 128.444 157.017C126.914 158.241 125.384 159.771 124.16 160.995L32.36 252.794C-10.786 295.94 -10.786 366.626 32.36 409.773C75.506 452.919 146.192 452.919 189.338 409.773L272.265 325.928C230.035 335.719 220.243 334.496 184.135 320.114Z" fill="white"/>
</svg>
