<svg width="167" height="166" viewBox="0 0 167 166" fill="none" xmlns="http://www.w3.org/2000/svg">
<path fill-rule="evenodd" clip-rule="evenodd" d="M122 68.5C122 98.0472 98.0472 122 68.5 122C38.9528 122 15 98.0472 15 68.5C15 38.9528 38.9528 15 68.5 15C98.0472 15 122 38.9528 122 68.5ZM109.531 123.357C98.0939 131.925 83.8896 137 68.5 137C30.6685 137 0 106.331 0 68.5C0 30.6685 30.6685 0 68.5 0C106.332 0 137 30.6685 137 68.5C137 84.9221 131.221 99.9945 121.586 111.795L163.815 150.657C167.202 153.774 167.421 159.047 164.304 162.435C161.186 165.823 155.913 166.042 152.525 162.924L109.531 123.357Z" fill="#0079FE"/>
</svg>
