<svg width="28" height="28" viewBox="0 0 28 28" fill="none" xmlns="http://www.w3.org/2000/svg">
<path fill-rule="evenodd" clip-rule="evenodd" d="M14 3.92566C13.3542 3.92566 12.8342 3.40576 12.8342 2.76001V1.16577C12.8342 0.52002 13.3542 0 14 0C14.6458 0 15.1658 0.52002 15.1658 1.16577V2.76001C15.1658 3.40576 14.6458 3.92566 14 3.92566ZM22.7715 14C22.7715 9.16003 18.8342 5.22852 14 5.22852C9.16577 5.22852 5.22852 9.16577 5.22852 14C5.22852 18.84 9.16577 22.7715 14 22.7715C18.84 22.7715 22.7715 18.8342 22.7715 14ZM15.1658 25.24C15.1658 24.5942 14.6458 24.0743 14 24.0743C13.3542 24.0743 12.8342 24.5942 12.8342 25.24V26.8342C12.8342 27.48 13.3542 28 14 28C14.6458 28 15.1658 27.48 15.1658 26.8342V25.24ZM2.76001 12.8342H1.16565C0.52002 12.8342 0 13.3542 0 14C0 14.6458 0.52002 15.1658 1.16565 15.1658H2.76001C3.40576 15.1658 3.92566 14.6458 3.92566 14C3.92566 13.3542 3.40576 12.8342 2.76001 12.8342ZM25.24 12.8342H26.8342C27.48 12.8342 28 13.3542 28 14C28 14.6458 27.48 15.1658 26.8342 15.1658H25.24C24.5942 15.1658 24.0743 14.6458 24.0743 14C24.0743 13.3542 24.5942 12.8342 25.24 12.8342ZM4.10291 5.75427L5.22852 6.88C5.68567 7.33142 6.42285 7.33716 6.88 6.88C7.33716 6.42285 7.33716 5.68567 6.88 5.22852L5.75427 4.10291C5.29712 3.64575 4.56006 3.64575 4.10291 4.10291C3.64575 4.56006 3.64575 5.29712 4.10291 5.75427ZM22.7715 21.12L23.8971 22.2457C24.3542 22.7029 24.3542 23.4399 23.8971 23.8971C23.4399 24.3542 22.7029 24.3542 22.2457 23.8971L21.12 22.7715C20.6628 22.3143 20.6628 21.5771 21.12 21.12C21.5771 20.6628 22.3143 20.6686 22.7715 21.12ZM6.88 21.12C6.42285 20.6628 5.68567 20.6628 5.22852 21.12L4.10291 22.2457C3.64575 22.7029 3.64575 23.4399 4.10291 23.8971C4.56006 24.3542 5.29712 24.3542 5.75427 23.8971L6.88 22.7715C7.33716 22.3143 7.33716 21.5771 6.88 21.12ZM22.7715 6.88C22.3143 7.33716 21.5771 7.33716 21.12 6.88C20.6628 6.42285 20.6628 5.68567 21.12 5.22852L22.2457 4.10291C22.7029 3.64575 23.4399 3.64575 23.8971 4.10291C24.3542 4.56006 24.3542 5.29712 23.8971 5.75427L22.7715 6.88Z" fill="white"/>
</svg>
